1.9Hzlow3min_grf.mot
version=1
nRows=12
nColumns 19
inDegrees=yes
endheader
time	1_ground_force_vx	1_ground_force_vy	1_ground_force_vz	1_ground_force_px	1_ground_force_py	1_ground_force_pz	1_ground_torque_x	1_ground_torque_y	1_ground_torque_z	2_ground_force_vx	2_ground_force_vy	2_ground_force_vz	2_ground_force_px	2_ground_force_py	2_ground_force_pz	2_ground_torque_x	2_ground_torque_y	2_ground_torque_z
            1.253500	            0.870500	            5.947952	            0.252626	           -0.233013	            0.005581	           -0.255695	            0.606339	           -0.231123	            0.166019	            3.369362	           39.795420	           -1.736694	           -0.180068	            0.005968	           -0.735266	           -0.028787	           -0.340003	            0.014838
            1.254000	            0.962120	            6.308502	            0.253944	           -0.233013	            0.005581	           -0.255695	            0.512534	           -0.213095	            0.283014	            3.465802	           39.058495	           -1.551649	           -0.179998	            0.005973	           -0.736777	           -0.028806	           -0.324637	            0.012897
            1.254500	            0.870515	            6.488553	            0.300800	           -0.233013	            0.005581	           -0.255695	            0.529083	           -0.203647	            0.222703	            3.238117	           37.216836	           -1.745833	           -0.179485	            0.005974	           -0.736483	           -0.027294	           -0.313703	            0.014716
            1.255000	            0.825112	            5.947157	            0.436163	           -0.233013	            0.005581	           -0.255695	            0.504835	           -0.203749	            0.239626	            3.196186	           35.925453	           -1.140347	           -0.178995	            0.005967	           -0.733961	           -0.024597	           -0.276472	            0.008776
            1.255500	            0.962072	            5.948167	            0.206542	           -0.233013	            0.005581	           -0.255695	            0.439681	           -0.222435	            0.301966	            3.154448	           34.453770	           -1.614865	           -0.179161	            0.005971	           -0.735421	           -0.033638	           -0.367409	            0.017221
            1.256000	            1.283365	            5.046507	            0.293593	           -0.233013	            0.005581	           -0.255695	            0.436382	           -0.213042	            0.315730	            3.018509	           33.164559	           -1.713260	           -0.174880	            0.005969	           -0.730477	           -0.033903	           -0.372494	            0.019243
            1.256500	            1.053449	            5.768509	            0.067974	           -0.233013	            0.005581	           -0.255695	            0.464539	           -0.231798	            0.343376	            2.786918	           32.427120	           -1.715789	           -0.177617	            0.005967	           -0.732637	           -0.029777	           -0.346466	            0.018332
            1.257000	            1.007589	            6.489366	            0.117035	           -0.233013	            0.005581	           -0.255695	            0.462106	           -0.176357	            0.341640	            2.788124	           32.059828	           -1.998672	           -0.180594	            0.005960	           -0.733793	           -0.028986	           -0.333306	            0.020779
            1.257500	            0.503609	            6.128344	            0.208453	           -0.233013	            0.005581	           -0.255695	            0.589773	           -0.148831	            0.319951	            2.885250	           31.138588	           -1.767356	           -0.178384	            0.005969	           -0.733891	           -0.030109	           -0.324941	            0.018443
            1.258000	            0.916277	            6.308493	            0.254058	           -0.233013	            0.005581	           -0.255695	            0.587655	           -0.166965	            0.299869	            2.888655	           30.217177	           -1.582929	           -0.179232	            0.005971	           -0.735306	           -0.033169	           -0.346972	            0.018176
            1.258500	            0.870335	            6.849281	            0.256490	           -0.233013	            0.005581	           -0.255695	            0.493543	           -0.204140	            0.335565	            2.846396	           28.928471	           -1.728293	           -0.180906	            0.005954	           -0.732316	           -0.035920	           -0.365063	            0.021810
            1.259000	            1.099748	            5.767731	            0.251284	           -0.233013	            0.005581	           -0.255695	            0.362586	           -0.249793	            0.232718	            2.521688	           28.007215	           -1.919151	           -0.177197	            0.005967	           -0.732083	           -0.028918	           -0.321175	            0.022008
